<?xml version="1.0" encoding="UTF-8"?>
<svg xmlns="http://www.w3.org/2000/svg" xmlns:xlink="http://www.w3.org/1999/xlink" width="20px" height="20px" viewBox="0 0 20 20" version="1.1">
<g id="surface1">
<path style=" stroke:none;fill-rule:nonzero;fill:rgb(0%,0%,0%);fill-opacity:1;" d="M 16.828125 14.953125 C 14.707031 17.882812 10.957031 19.132812 7.5 18.0625 L 7.5 17.5 L 8.4375 16.5625 L 8.4375 15.3125 L 9.6875 14.0625 L 9.6875 13.125 L 10.9375 14.375 L 12.5 14.375 L 13.125 13.75 L 15.625 13.75 Z M 16.828125 14.953125 "/>
<path style=" stroke:none;fill-rule:nonzero;fill:rgb(0%,0%,0%);fill-opacity:1;" d="M 13.125 6.433594 L 13.125 7.234375 L 11.898438 8.4375 L 9.6875 8.4375 L 8.011719 10.082031 L 9.6875 11.722656 L 9.6875 13.304688 L 8.574219 12.1875 L 7.144531 12.1875 L 5 10.035156 L 5 7.5625 L 3.6875 6.25 L 2.4375 6.25 C 3.863281 3.378906 6.792969 1.5625 10 1.5625 C 10.742188 1.5625 11.488281 1.660156 12.207031 1.855469 L 11.25 2.8125 L 9.375 2.8125 L 9.375 4.0625 L 10.625 5.3125 L 11.976562 5.3125 Z M 13.125 6.433594 "/>
<path style=" stroke:none;fill-rule:nonzero;fill:rgb(0%,0%,0%);fill-opacity:1;" d="M 10 18.75 C 5.167969 18.75 1.25 14.832031 1.25 10 C 1.25 5.167969 5.167969 1.25 10 1.25 C 14.832031 1.25 18.75 5.167969 18.75 10 C 18.75 14.832031 14.832031 18.75 10 18.75 Z M 10 1.875 C 5.511719 1.875 1.875 5.511719 1.875 10 C 1.875 14.488281 5.511719 18.125 10 18.125 C 14.488281 18.125 18.125 14.488281 18.125 10 C 18.125 5.511719 14.488281 1.875 10 1.875 Z M 10 1.875 "/>
</g>
</svg>
